<svg xmlns="http://www.w3.org/2000/svg" viewBox="0 0 48 48" width="48px" height="48px"><linearGradient id="O9efAG0Kb_OAZV2R~7zcea" x1="41.945" x2="37.951" y1="8.5" y2="8.5" gradientUnits="userSpaceOnUse"><stop offset="0" stop-color="#0d61a9"/><stop offset="1" stop-color="#16528c"/></linearGradient><path fill="url(#O9efAG0Kb_OAZV2R~7zcea)" d="M37,11h5V8c0-1.105-0.895-2-2-2h-3V11z"/><linearGradient id="O9efAG0Kb_OAZV2R~7zceb" x1="14.002" x2="35.437" y1="6.793" y2="42.14" gradientUnits="userSpaceOnUse"><stop offset="0" stop-color="#7dd8f3"/><stop offset="1" stop-color="#45b0d0"/></linearGradient><path fill="url(#O9efAG0Kb_OAZV2R~7zceb)" d="M36,42H10c-1.105,0-2-0.895-2-2V8c0-1.105,0.895-2,2-2l30,0c-1.105,0-2,0.895-2,2v32	C38,41.105,37.105,42,36,42z"/><linearGradient id="O9efAG0Kb_OAZV2R~7zcec" x1="20" x2="20" y1="37.284" y2="42.01" gradientUnits="userSpaceOnUse"><stop offset="0" stop-color="#0176d0"/><stop offset="1" stop-color="#16538c"/></linearGradient><path fill="url(#O9efAG0Kb_OAZV2R~7zcec)" d="M34,40v-3H4v3c0,1.105,0.895,2,2,2h30C34.895,42,34,41.105,34,40z"/><path fill="#057093" d="M32.5,19h-19c-0.276,0-0.5-0.224-0.5-0.5v-2c0-0.276,0.224-0.5,0.5-0.5h19c0.276,0,0.5,0.224,0.5,0.5	v2C33,18.776,32.776,19,32.5,19z"/><path fill="#057093" d="M32.5,25h-19c-0.276,0-0.5-0.224-0.5-0.5v-2c0-0.276,0.224-0.5,0.5-0.5h19c0.276,0,0.5,0.224,0.5,0.5	v2C33,24.776,32.776,25,32.5,25z"/><path fill="#057093" d="M32.5,31h-19c-0.276,0-0.5-0.224-0.5-0.5v-2c0-0.276,0.224-0.5,0.5-0.5h19c0.276,0,0.5,0.224,0.5,0.5	v2C33,30.776,32.776,31,32.5,31z"/><linearGradient id="O9efAG0Kb_OAZV2R~7zced" x1="28" x2="48" y1="38" y2="38" gradientUnits="userSpaceOnUse"><stop offset="0" stop-color="#21ad64"/><stop offset="1" stop-color="#088242"/></linearGradient><circle cx="38" cy="38" r="10" fill="url(#O9efAG0Kb_OAZV2R~7zced)"/><path fill="#fff" d="M38.5,43h-1c-0.276,0-0.5-0.224-0.5-0.5v-9c0-0.276,0.224-0.5,0.5-0.5h1c0.276,0,0.5,0.224,0.5,0.5v9	C39,42.776,38.776,43,38.5,43z"/><path fill="#fff" d="M33,38.5v-1c0-0.276,0.224-0.5,0.5-0.5h9c0.276,0,0.5,0.224,0.5,0.5v1c0,0.276-0.224,0.5-0.5,0.5h-9	C33.224,39,33,38.776,33,38.5z"/></svg>