<svg xmlns="http://www.w3.org/2000/svg" viewBox="0 0 48 48" width="48px" height="48px"><linearGradient id="Jk4AAv6ULAQCv3MFe9sLga" x1="24" x2="24" y1="6.708" y2="14.977" gradientUnits="userSpaceOnUse"><stop offset="0" stop-color="#eba600"/><stop offset="1" stop-color="#c28200"/></linearGradient><path fill="url(#Jk4AAv6ULAQCv3MFe9sLga)" d="M24.414,10.414l-2.536-2.536C21.316,7.316,20.553,7,19.757,7L5,7C3.895,7,3,7.895,3,9l0,30	c0,1.105,0.895,2,2,2l38,0c1.105,0,2-0.895,2-2V13c0-1.105-0.895-2-2-2l-17.172,0C25.298,11,24.789,10.789,24.414,10.414z"/><linearGradient id="Jk4AAv6ULAQCv3MFe9sLgb" x1="24" x2="24" y1="10.854" y2="40.983" gradientUnits="userSpaceOnUse"><stop offset="0" stop-color="#ffd869"/><stop offset="1" stop-color="#fec52b"/></linearGradient><path fill="url(#Jk4AAv6ULAQCv3MFe9sLgb)" d="M21.586,14.414l3.268-3.268C24.947,11.053,25.074,11,25.207,11H43c1.105,0,2,0.895,2,2v26	c0,1.105-0.895,2-2,2H5c-1.105,0-2-0.895-2-2V15.5C3,15.224,3.224,15,3.5,15h16.672C20.702,15,21.211,14.789,21.586,14.414z"/><linearGradient id="Jk4AAv6ULAQCv3MFe9sLgc" x1="17.563" x2="32.184" y1="28.037" y2="42.236" gradientUnits="userSpaceOnUse"><stop offset="0" stop-color="#0176d1"/><stop offset="1" stop-color="#016dc2"/></linearGradient><path fill="url(#Jk4AAv6ULAQCv3MFe9sLgc)" d="M38,28v13c0,0.552-0.448,1-1,1h-6c-0.552,0-1-0.448-1-1v-7H18v7c0,0.552-0.448,1-1,1h-6	c-0.552,0-1-0.448-1-1V28c0-1.105,0.895-2,2-2h24C37.105,26,38,26.895,38,28z"/><linearGradient id="Jk4AAv6ULAQCv3MFe9sLgd" x1="24" x2="24" y1="25.968" y2="34.273" gradientUnits="userSpaceOnUse"><stop offset="0" stop-color="#118fdd"/><stop offset="1" stop-color="#108bd6"/></linearGradient><path fill="url(#Jk4AAv6ULAQCv3MFe9sLgd)" d="M36,26H12c-0.618,0-1.163,0.286-1.53,0.726L18,34h12l7.53-7.274	C37.163,26.286,36.618,26,36,26z"/></svg>