<svg xmlns="http://www.w3.org/2000/svg" viewBox="0 0 48 48" width="48px" height="48px"><path fill="#bc1948" d="M37,4H11C9.895,4,9,4.895,9,6v36c0,1.105,0.895,2,2,2h26c1.105,0,2-0.895,2-2V6	C39,4.895,38.105,4,37,4z"/><path d="M26.085,15.501C27.418,14.168,29,15.125,29,16.708V20h10v8H29v3.292c0,1.958-1.645,2.478-2.915,1.208	l-6.944-6.944c-0.856-0.857-0.856-2.252,0-3.109L26.085,15.501z" opacity=".05"/><path d="M26.438,15.855c0.89-0.89,2.062-0.253,2.062,0.854V20.5H39v7H28.5v3.791	c0,1.294-1.203,1.712-2.062,0.854l-6.944-6.944c-0.662-0.663-0.662-1.74,0-2.403L26.438,15.855z" opacity=".07"/><path fill="#faa0bd" d="M28,16.81V21h13c0.552,0,1,0.448,1,1v4c0,0.552-0.448,1-1,1H28v4.19c0,0.72-0.87,1.08-1.379,0.571	l-6.701-6.701c-0.586-0.586-0.586-1.536,0-2.121l6.701-6.701C27.13,15.729,28,16.09,28,16.81z"/></svg>