<svg xmlns="http://www.w3.org/2000/svg" viewBox="0 0 48 48" width="48px" height="48px"><linearGradient id="6Zhhzfyxdkhz3yAVUs8lua" x1="23.226" x2="36.182" y1="15.079" y2="18.491" gradientUnits="userSpaceOnUse"><stop offset="0" stop-color="#6d7479"/><stop offset="1" stop-color="#323538"/></linearGradient><path fill="url(#6Zhhzfyxdkhz3yAVUs8lua)" d="M27,6h6v20.802C33,27.464,32.464,28,31.802,28h-3.604C27.536,28,27,27.464,27,26.802V6z"/><linearGradient id="6Zhhzfyxdkhz3yAVUs8lub" x1="7.081" x2="27.108" y1="26.691" y2="25.455" gradientUnits="userSpaceOnUse"><stop offset="0" stop-color="#889097"/><stop offset="1" stop-color="#64717c"/></linearGradient><path fill="url(#6Zhhzfyxdkhz3yAVUs8lub)" d="M19,33c-3.3,0-6-2.7-6-6v-3c0-3.3,2.7-6,6-6h6v-4h-6c-5.5,0-10,4.5-10,10v3	c0,5.5,4.5,10,10,10h15c1.105,0,2-0.895,2-2v0c0-1.105-0.895-2-2-2H19z"/><linearGradient id="6Zhhzfyxdkhz3yAVUs8luc" x1="22.585" x2="28.322" y1="37.418" y2="57.857" gradientUnits="userSpaceOnUse"><stop offset="0" stop-color="#6d7479"/><stop offset="1" stop-color="#323538"/></linearGradient><path fill="url(#6Zhhzfyxdkhz3yAVUs8luc)" d="M9.94,44H38.06c0.519,0,0.94-0.421,0.94-0.94V42c0-1.1-0.9-2-2-2H11c-1.1,0-2,0.9-2,2v1.06	C9,43.579,9.421,44,9.94,44z"/><linearGradient id="6Zhhzfyxdkhz3yAVUs8lud" x1="18.867" x2="27.867" y1="13.083" y2="22.528" gradientUnits="userSpaceOnUse"><stop offset="0" stop-color="#889097"/><stop offset="1" stop-color="#64717c"/></linearGradient><path fill="url(#6Zhhzfyxdkhz3yAVUs8lud)" d="M25,20h-5c-2.2,0-4-1.8-4-4l0,0c0-2.2,1.8-4,4-4h5V20z"/><linearGradient id="6Zhhzfyxdkhz3yAVUs8lue" x1="24.715" x2="38.759" y1="11.891" y2="24.682" gradientUnits="userSpaceOnUse"><stop offset="0" stop-color="#00b3ee"/><stop offset="1" stop-color="#0082d8"/></linearGradient><path fill="url(#6Zhhzfyxdkhz3yAVUs8lue)" d="M33,26h-6c-1.1,0-2-0.9-2-2V8.945C25,8.423,25.423,8,25.945,8h8.11	C34.577,8,35,8.423,35,8.945V24C35,25.1,34.1,26,33,26z"/><linearGradient id="6Zhhzfyxdkhz3yAVUs8luf" x1="27.873" x2="35.389" y1="3.003" y2="10.059" gradientUnits="userSpaceOnUse"><stop offset="0" stop-color="#00b3ee"/><stop offset="1" stop-color="#0082d8"/></linearGradient><path fill="url(#6Zhhzfyxdkhz3yAVUs8luf)" d="M27,4h6c0.552,0,1,0.448,1,1v0c0,0.552-0.448,1-1,1h-6c-0.552,0-1-0.448-1-1v0	C26,4.448,26.448,4,27,4z"/><radialGradient id="6Zhhzfyxdkhz3yAVUs8lug" cx="20.066" cy="15.313" r="3.323" gradientUnits="userSpaceOnUse"><stop offset=".439" stop-color="#53585c"/><stop offset="1" stop-color="#323538"/></radialGradient><circle cx="21" cy="16" r="2" fill="url(#6Zhhzfyxdkhz3yAVUs8lug)"/><path d="M21,14c1.105,0,2,0.895,2,2s-0.895,2-2,2s-2-0.895-2-2S19.895,14,21,14 M21,13.5	c-1.378,0-2.5,1.121-2.5,2.5s1.122,2.5,2.5,2.5s2.5-1.121,2.5-2.5S22.378,13.5,21,13.5L21,13.5z" opacity=".05"/><linearGradient id="6Zhhzfyxdkhz3yAVUs8luh" x1="12.593" x2="22.022" y1="32.387" y2="41.354" gradientUnits="userSpaceOnUse"><stop offset="0" stop-color="#00b3ee"/><stop offset="1" stop-color="#0082d8"/></linearGradient><path fill="url(#6Zhhzfyxdkhz3yAVUs8luh)" d="M21.6,31.9c-0.4-0.6-1-0.9-1.7-0.9H18c-0.7,0-1.3,0.3-1.7,0.9L11,40h16L21.6,31.9z"/><radialGradient id="6Zhhzfyxdkhz3yAVUs8lui" cx="17.544" cy="34.104" r="3.584" gradientUnits="userSpaceOnUse"><stop offset="0" stop-color="#5a6064"/><stop offset="1" stop-color="#323538"/></radialGradient><circle cx="19" cy="35" r="2" fill="url(#6Zhhzfyxdkhz3yAVUs8lui)"/><path d="M19,33c1.1,0,2,0.9,2,2s-0.9,2-2,2s-2-0.9-2-2S17.9,33,19,33 M19,32.5c-1.378,0-2.5,1.121-2.5,2.5	s1.122,2.5,2.5,2.5s2.5-1.121,2.5-2.5S20.378,32.5,19,32.5L19,32.5z" opacity=".05"/></svg>