<svg xmlns="http://www.w3.org/2000/svg" viewBox="0 0 48 48" width="48px" height="48px"><path fill="#64717c" d="M27,33.606L11.464,18.07L25.169,4.364c1.011-1.011,2.651-1.011,3.662,0L42.536,18.07L27,33.606z"/><path fill="#889097" d="M19,31L6.278,18.278L17.501,7.054c0.828-0.828,2.171-0.828,2.999,0l11.223,11.223L19,31z"/><path fill="#d43a02" d="M45,25H3c-0.552,0-1-0.448-1-1v0c0-0.552,0.448-1,1-1h42c0.552,0,1,0.448,1,1v0	C46,24.552,45.552,25,45,25z"/><linearGradient id="M5f2RUfnu6QgYHsDSBBc2a" x1="21.604" x2="28.097" y1="20.818" y2="43.375" gradientUnits="userSpaceOnUse"><stop offset="0" stop-color="#b9360c"/><stop offset=".999" stop-color="#ab320b"/></linearGradient><path fill="url(#M5f2RUfnu6QgYHsDSBBc2a)" d="M41,41H7c-1.105,0-2-0.895-2-2V19h38v20C43,40.105,42.105,41,41,41z"/><path fill="#586169" d="M38,41c0,2.209-1.79,4-4,4s-4-1.791-4-4s1.79-4,4-4S38,38.791,38,41"/><path fill="#999" d="M36,41c0,1.105-0.895,2-2,2s-2-0.895-2-2s0.895-2,2-2S36,39.895,36,41"/><path fill="#586169" d="M18,41c0,2.209-1.79,4-4,4s-4-1.791-4-4s1.79-4,4-4S18,38.791,18,41"/><path fill="#999" d="M16,41c0,1.105-0.895,2-2,2s-2-0.895-2-2s0.895-2,2-2S16,39.895,16,41"/><path fill="#d43a02" d="M43,19H5c-0.552,0-1-0.448-1-1v0c0-0.552,0.448-1,1-1h38c0.552,0,1,0.448,1,1v0	C44,18.552,43.552,19,43,19z"/></svg>