<svg xmlns="http://www.w3.org/2000/svg" viewBox="0 0 48 48" width="48px" height="48px"><linearGradient id="ZfzNm57VE7az0V5eAzgOEa" x1="9" x2="39" y1="24" y2="24" gradientUnits="userSpaceOnUse"><stop offset="0" stop-color="#fede00"/><stop offset="1" stop-color="#ffd000"/></linearGradient><path fill="url(#ZfzNm57VE7az0V5eAzgOEa)" d="M39,41c0,1.105-0.895,2-2,2H11c-1.105,0-2-0.895-2-2V7c0-1.105,0.895-2,2-2h26	c1.105,0,2,0.895,2,2V41z"/><polygon fill="#e97c01" points="22,25 17,5 31,5 26,25"/><path fill="#e97c01" d="M26,26c-0.13,0-0.26-0.02-0.38-0.08c-0.12-0.05-0.23-0.12-0.33-0.21C25.11,25.52,25,25.26,25,25 c0-0.26,0.11-0.52,0.29-0.71c0.1-0.09,0.21-0.16,0.33-0.21c0.37-0.16,0.81-0.07,1.09,0.21C26.89,24.48,27,24.74,27,25 c0,0.07-0.01,0.13-0.02,0.2c-0.01,0.06-0.03,0.12-0.06,0.18c-0.02,0.06-0.05,0.12-0.09,0.18c-0.03,0.05-0.08,0.1-0.12,0.15 c-0.05,0.04-0.1,0.09-0.15,0.12c-0.06,0.04-0.12,0.07-0.18,0.09c-0.06,0.03-0.12,0.05-0.18,0.06C26.13,25.99,26.07,26,26,26z"/><path fill="#e97c01" d="M26.69,22.17c-0.53-0.13-0.86-0.67-0.73-1.21l0,0c0.13-0.53,0.67-0.86,1.21-0.73l0,0 c0.54,0.13,0.86,0.67,0.73,1.21l0,0c-0.11,0.45-0.52,0.76-0.97,0.76l0,0C26.85,22.2,26.77,22.19,26.69,22.17z M27.62,18.37 c-0.54-0.13-0.86-0.67-0.73-1.21l0,0c0.13-0.53,0.67-0.86,1.21-0.73l0,0c0.53,0.13,0.86,0.67,0.73,1.21l0,0 c-0.11,0.45-0.52,0.76-0.97,0.76l0,0C27.78,18.4,27.7,18.39,27.62,18.37z M28.55,14.57c-0.53-0.13-0.86-0.67-0.73-1.21l0,0 c0.13-0.53,0.67-0.86,1.21-0.73l0,0c0.53,0.13,0.86,0.67,0.73,1.21l0,0c-0.11,0.45-0.52,0.76-0.97,0.76l0,0 C28.71,14.6,28.63,14.59,28.55,14.57z M29.48,10.77c-0.53-0.13-0.86-0.67-0.73-1.21l0,0c0.13-0.54,0.67-0.86,1.21-0.73l0,0 c0.53,0.13,0.86,0.67,0.73,1.21l0,0c-0.11,0.45-0.52,0.76-0.97,0.76l0,0C29.64,10.8,29.56,10.79,29.48,10.77z"/><path fill="#e97c01" d="M30.65,7c-0.26,0-0.52-0.11-0.71-0.29C29.76,6.52,29.65,6.26,29.65,6c0-0.26,0.11-0.52,0.29-0.71 c0.37-0.37,1.04-0.37,1.42,0c0.18,0.19,0.29,0.45,0.29,0.71c0,0.26-0.11,0.52-0.29,0.71C31.17,6.89,30.91,7,30.65,7z"/><path fill="#e97c01" d="M17.35,7c-0.26,0-0.52-0.11-0.71-0.29C16.46,6.52,16.35,6.26,16.35,6c0-0.26,0.11-0.52,0.29-0.71 c0.38-0.37,1.04-0.37,1.42,0c0.18,0.19,0.29,0.45,0.29,0.71c0,0.26-0.11,0.52-0.29,0.71C17.87,6.89,17.61,7,17.35,7z"/><path fill="#e97c01" d="M20.1,21.44c-0.13-0.54,0.2-1.08,0.73-1.21l0,0c0.54-0.13,1.08,0.19,1.21,0.73l0,0 c0.13,0.54-0.2,1.08-0.73,1.21l0,0c-0.08,0.02-0.16,0.03-0.24,0.03l0,0C20.62,22.2,20.21,21.89,20.1,21.44z M19.17,17.64 c-0.13-0.54,0.19-1.08,0.73-1.21l0,0c0.54-0.13,1.08,0.2,1.21,0.73l0,0c0.13,0.54-0.2,1.08-0.73,1.21l0,0 c-0.08,0.02-0.16,0.03-0.24,0.03l0,0C19.69,18.4,19.28,18.09,19.17,17.64z M18.24,13.84c-0.13-0.54,0.2-1.08,0.73-1.21l0,0 c0.54-0.13,1.08,0.2,1.21,0.73l0,0c0.13,0.54-0.2,1.08-0.73,1.21l0,0c-0.08,0.02-0.16,0.03-0.24,0.03l0,0 C18.76,14.6,18.35,14.29,18.24,13.84z M17.31,10.04c-0.13-0.54,0.2-1.08,0.73-1.21l0,0c0.54-0.13,1.08,0.19,1.21,0.73l0,0 c0.13,0.54-0.2,1.08-0.73,1.21l0,0c-0.08,0.02-0.16,0.03-0.24,0.03l0,0C17.83,10.8,17.42,10.49,17.31,10.04z"/><path fill="#e97c01" d="M22,26c-0.07,0-0.13-0.01-0.2-0.02c-0.06-0.01-0.12-0.03-0.18-0.06c-0.06-0.02-0.12-0.05-0.18-0.09 c-0.05-0.03-0.1-0.08-0.15-0.12C21.11,25.52,21,25.26,21,25c0-0.26,0.11-0.52,0.29-0.71c0.38-0.37,1.05-0.37,1.42,0 C22.89,24.48,23,24.74,23,25c0,0.07-0.01,0.13-0.02,0.2c-0.01,0.06-0.03,0.12-0.06,0.18c-0.02,0.06-0.05,0.12-0.09,0.18 c-0.03,0.05-0.08,0.1-0.12,0.15c-0.05,0.04-0.1,0.09-0.15,0.12c-0.06,0.04-0.12,0.07-0.18,0.09c-0.06,0.03-0.12,0.05-0.18,0.06 C22.13,25.99,22.06,26,22,26z"/><rect width="4" height="2" x="22" y="24" fill="#e97c01"/><linearGradient id="ZfzNm57VE7az0V5eAzgOEb" x1="21" x2="27" y1="31.5" y2="31.5" gradientUnits="userSpaceOnUse"><stop offset="0" stop-color="#4b4b4b"/><stop offset="1" stop-color="#3b3b3b"/></linearGradient><path fill="url(#ZfzNm57VE7az0V5eAzgOEb)" d="M26.154,26.818C26.068,26.344,25.654,26,25.171,26h-2.342c-0.483,0-0.897,0.342-0.983,0.817	c-0.275,1.511-0.823,4.793-0.845,7.047c-0.015,1.508,1.047,2.88,2.538,3.102C25.4,37.243,27,35.808,27,34	C27,31.745,26.435,28.361,26.154,26.818z M24,35c-0.552,0-1-0.448-1-1c0-0.552,0.448-1,1-1s1,0.448,1,1C25,34.552,24.552,35,24,35z"/></svg>