<svg xmlns="http://www.w3.org/2000/svg" viewBox="0 0 48 48" width="48px" height="48px"><linearGradient id="m9G3NMxLHwd8EFRSYPnq8a" x1="5.715" x2="40.857" y1="7.63" y2="42.771" gradientUnits="userSpaceOnUse"><stop offset="0" stop-color="#32bdef"/><stop offset="1" stop-color="#1ea2e4"/></linearGradient><path fill="url(#m9G3NMxLHwd8EFRSYPnq8a)" d="M36.172,6H8C6.895,6,6,6.895,6,8v32c0,1.105,0.895,2,2,2h32c1.105,0,2-0.895,2-2V11.828	c0-0.53-0.211-1.039-0.586-1.414l-3.828-3.828C37.211,6.211,36.702,6,36.172,6z"/><path d="M36,6H14v10c0,1.657,1.343,3,3,3h16c1.657,0,3-1.343,3-3V6z" opacity=".05"/><path fill="#1fa4e6" d="M33,19H13c-1.105,0-2-0.895-2-2V6h24v11C35,18.105,34.105,19,33,19z"/><path d="M33,18.5H17c-1.381,0-2.5-1.119-2.5-2.5V6h21v10C35.5,17.381,34.381,18.5,33,18.5z" opacity=".07"/><radialGradient id="m9G3NMxLHwd8EFRSYPnq8b" cx="17.573" cy="2.608" r="23.87" gradientUnits="userSpaceOnUse"><stop offset="0" stop-color="#fafafb"/><stop offset=".523" stop-color="#e2e4e7"/><stop offset="1" stop-color="#c8cdd1"/></radialGradient><path fill="url(#m9G3NMxLHwd8EFRSYPnq8b)" d="M15,6v10c0,1.105,0.895,2,2,2h16c1.105,0,2-0.895,2-2V6H15z"/><path fill="#fff" d="M34,42H14c-1.105,0-2-0.895-2-2V28c0-1.105,0.895-2,2-2h20c1.105,0,2,0.895,2,2v12	C36,41.105,35.105,42,34,42z"/><rect width="4" height="8" x="27" y="8" fill="#177cad"/><linearGradient id="m9G3NMxLHwd8EFRSYPnq8c" x1="38.003" x2="40.027" y1="38.003" y2="40.027" gradientUnits="userSpaceOnUse"><stop offset="0" stop-color="#0d61a9"/><stop offset="1" stop-color="#16528c"/></linearGradient><rect width="2" height="2" x="38" y="38" fill="url(#m9G3NMxLHwd8EFRSYPnq8c)"/><linearGradient id="m9G3NMxLHwd8EFRSYPnq8d" x1="8.003" x2="10.027" y1="38.003" y2="40.027" gradientUnits="userSpaceOnUse"><stop offset="0" stop-color="#0d61a9"/><stop offset="1" stop-color="#16528c"/></linearGradient><rect width="2" height="2" x="8" y="38" fill="url(#m9G3NMxLHwd8EFRSYPnq8d)"/></svg>